<svg width="24" height="24" viewBox="0 0 24 24" fill="none" xmlns="http://www.w3.org/2000/svg">
<path d="M17.8333 2.50008H22.3334C22.6428 2.50008 22.9395 2.623 23.1583 2.84179C23.3771 3.06058 23.5 3.35733 23.5 3.66675V22.3334C23.5 22.6428 23.3771 22.9396 23.1583 23.1584C22.9395 23.3772 22.6428 23.5001 22.3334 23.5001H1.66654C1.35713 23.5001 1.06038 23.3772 0.841587 23.1584C0.622794 22.9396 0.499878 22.6428 0.499878 22.3334V3.66675C0.499878 3.35733 0.622794 3.06058 0.841587 2.84179C1.06038 2.623 1.35713 2.50008 1.66654 2.50008H6.16662V1.16675C6.16662 0.614463 6.61433 0.166748 7.16662 0.166748H7.49995C8.05224 0.166748 8.49995 0.614463 8.49995 1.16675V2.50008H15.5V1.16675C15.5 0.614463 15.9477 0.166748 16.5 0.166748H16.8333C17.3856 0.166748 17.8333 0.614463 17.8333 1.16675V2.50008ZM2.50003 9.00008V21.5001H21.5V9.00008H2.50003ZM4.99993 15.1667C4.99994 14.6144 5.44765 14.1667 5.99993 14.1667H9.83328C10.3856 14.1667 10.8333 14.6145 10.8333 15.1667V16.5001C10.8333 17.0524 10.3856 17.5001 9.83328 17.5001H5.9999C5.44761 17.5001 4.99989 17.0524 4.9999 16.5001L4.99993 15.1667Z" fill="#4589FF"/>
</svg>
