<svg width="16" height="22" viewBox="0 0 16 22" fill="none" xmlns="http://www.w3.org/2000/svg">
<path d="M0 21.4829C0 19.3612 0.842855 17.3263 2.34315 15.8261C3.84344 14.3258 5.87827 13.4829 8 13.4829C10.1217 13.4829 12.1566 14.3258 13.6569 15.8261C15.1571 17.3263 16 19.3612 16 21.4829H14C14 19.8916 13.3679 18.3655 12.2426 17.2403C11.1174 16.1151 9.5913 15.4829 8 15.4829C6.4087 15.4829 4.88258 16.1151 3.75736 17.2403C2.63214 18.3655 2 19.8916 2 21.4829H0ZM8 12.4829C4.685 12.4829 2 9.79791 2 6.48291C2 3.16791 4.685 0.48291 8 0.48291C11.315 0.48291 14 3.16791 14 6.48291C14 9.79791 11.315 12.4829 8 12.4829ZM8 10.4829C10.21 10.4829 12 8.69291 12 6.48291C12 4.27291 10.21 2.48291 8 2.48291C5.79 2.48291 4 4.27291 4 6.48291C4 8.69291 5.79 10.4829 8 10.4829Z" fill="#A8A8A8"/>
</svg>
