<svg width="42" height="55" viewBox="0 0 42 55" fill="none" xmlns="http://www.w3.org/2000/svg">
<path d="M0.333344 54.3163C0.333344 48.8351 2.51072 43.5785 6.38647 39.7027C10.2622 35.827 15.5189 33.6496 21 33.6496C26.4812 33.6496 31.7378 35.827 35.6136 39.7027C39.4893 43.5785 41.6667 48.8351 41.6667 54.3163H36.5C36.5 50.2054 34.867 46.2629 31.9602 43.3561C29.0534 40.4493 25.1109 38.8163 21 38.8163C16.8892 38.8163 12.9467 40.4493 10.0399 43.3561C7.13304 46.2629 5.50001 50.2054 5.50001 54.3163H0.333344ZM21 31.0663C12.4363 31.0663 5.50001 24.13 5.50001 15.5663C5.50001 7.00253 12.4363 0.0662842 21 0.0662842C29.5638 0.0662842 36.5 7.00253 36.5 15.5663C36.5 24.13 29.5638 31.0663 21 31.0663ZM21 25.8996C26.7092 25.8996 31.3333 21.2755 31.3333 15.5663C31.3333 9.85712 26.7092 5.23295 21 5.23295C15.2908 5.23295 10.6667 9.85712 10.6667 15.5663C10.6667 21.2755 15.2908 25.8996 21 25.8996Z" fill="white"/>
</svg>
