<svg width="127" height="30" viewBox="0 0 127 30" fill="none" xmlns="http://www.w3.org/2000/svg">
<path d="M2.87121 21.687L7.69054 24.6119L20.3337 3.7798C20.6203 3.30767 20.4698 2.69264 19.9977 2.40609L16.8881 0.518869C16.4159 0.232326 15.8009 0.382778 15.5144 0.854913L2.87121 21.687Z" fill="#4589FF"/>
<path d="M2.28614 22.6508L7.10547 25.5757L2.37685 27.8606L2.28614 22.6508Z" fill="#4589FF"/>
<path d="M34.7744 26.3428H28.415V14.9209H34.7744V16.0928H29.7432V19.7881H34.4854V20.9443H29.7432V25.1709H34.7744V26.3428ZM40.1572 26.499C39.0739 26.499 38.2145 26.1292 37.5791 25.3896C36.9489 24.6501 36.6338 23.5511 36.6338 22.0928C36.6338 20.6188 36.9567 19.5068 37.6025 18.7568C38.2484 18.0016 39.1077 17.624 40.1807 17.624C40.6338 17.624 41.0296 17.6839 41.3682 17.8037C41.7067 17.9235 41.9984 18.085 42.2432 18.2881C42.488 18.486 42.6937 18.7126 42.8604 18.9678H42.9541C42.9333 18.8063 42.9124 18.585 42.8916 18.3037C42.8708 18.0225 42.8604 17.7933 42.8604 17.6162V14.1865H44.1572V26.3428H43.1104L42.915 25.124H42.8604C42.6989 25.3792 42.4932 25.611 42.2432 25.8193C41.9984 26.0277 41.7041 26.1943 41.3604 26.3193C41.0218 26.4391 40.6208 26.499 40.1572 26.499ZM40.3604 25.4209C41.277 25.4209 41.9255 25.1605 42.3057 24.6396C42.6859 24.1188 42.876 23.3454 42.876 22.3193V22.085C42.876 20.9964 42.6937 20.1605 42.3291 19.5771C41.9697 18.9938 41.3135 18.7021 40.3604 18.7021C39.5635 18.7021 38.9671 19.0094 38.5713 19.624C38.1755 20.2334 37.9775 21.0667 37.9775 22.124C37.9775 23.1761 38.1729 23.9886 38.5635 24.5615C38.9593 25.1344 39.5583 25.4209 40.3604 25.4209ZM48.2041 17.7803V26.3428H46.9072V17.7803H48.2041ZM47.5713 14.5771C47.7848 14.5771 47.9671 14.6475 48.1182 14.7881C48.2744 14.9235 48.3525 15.137 48.3525 15.4287C48.3525 15.7152 48.2744 15.9287 48.1182 16.0693C47.9671 16.21 47.7848 16.2803 47.5713 16.2803C47.3473 16.2803 47.1598 16.21 47.0088 16.0693C46.863 15.9287 46.79 15.7152 46.79 15.4287C46.79 15.137 46.863 14.9235 47.0088 14.7881C47.1598 14.6475 47.3473 14.5771 47.5713 14.5771ZM53.7197 25.4365C53.9333 25.4365 54.152 25.4183 54.376 25.3818C54.5999 25.3454 54.7822 25.3011 54.9229 25.249V26.2568C54.7718 26.3245 54.5609 26.3818 54.29 26.4287C54.0244 26.4756 53.764 26.499 53.5088 26.499C53.0557 26.499 52.6442 26.4209 52.2744 26.2646C51.9046 26.1032 51.6077 25.8324 51.3838 25.4521C51.165 25.0719 51.0557 24.5459 51.0557 23.874V18.7959H49.8369V18.1631L51.0635 17.6553L51.5791 15.7959H52.3604V17.7803H54.8682V18.7959H52.3604V23.835C52.3604 24.3714 52.4827 24.7725 52.7275 25.0381C52.9775 25.3037 53.3083 25.4365 53.7197 25.4365ZM65.8916 15.9287C65.2614 15.9287 64.6937 16.0381 64.1885 16.2568C63.6885 16.4704 63.2614 16.7829 62.9072 17.1943C62.5583 17.6006 62.29 18.0928 62.1025 18.6709C61.915 19.249 61.8213 19.9001 61.8213 20.624C61.8213 21.5824 61.9697 22.4157 62.2666 23.124C62.5687 23.8271 63.0166 24.3714 63.6104 24.7568C64.2093 25.1423 64.9567 25.335 65.8525 25.335C66.363 25.335 66.8421 25.2933 67.29 25.21C67.7432 25.1214 68.1833 25.012 68.6104 24.8818V26.0381C68.1937 26.1943 67.7562 26.3089 67.2979 26.3818C66.8395 26.46 66.2952 26.499 65.665 26.499C64.5036 26.499 63.5322 26.2594 62.751 25.7803C61.9749 25.2959 61.3916 24.6136 61.001 23.7334C60.6156 22.8532 60.4229 21.8141 60.4229 20.6162C60.4229 19.7516 60.5426 18.9626 60.7822 18.249C61.027 17.5303 61.3812 16.9105 61.8447 16.3896C62.3135 15.8688 62.8864 15.4678 63.5635 15.1865C64.2458 14.9001 65.027 14.7568 65.9072 14.7568C66.4854 14.7568 67.0426 14.8141 67.5791 14.9287C68.1156 15.0433 68.5999 15.2074 69.0322 15.4209L68.501 16.5459C68.1364 16.3792 67.7354 16.236 67.2979 16.1162C66.8656 15.9912 66.3968 15.9287 65.8916 15.9287ZM78.2744 22.0459C78.2744 22.749 78.1833 23.3766 78.001 23.9287C77.8187 24.4808 77.5557 24.9469 77.2119 25.3271C76.8682 25.7074 76.4515 25.999 75.9619 26.2021C75.4775 26.4001 74.9281 26.499 74.3135 26.499C73.7406 26.499 73.2145 26.4001 72.7354 26.2021C72.2614 25.999 71.8499 25.7074 71.501 25.3271C71.1572 24.9469 70.889 24.4808 70.6963 23.9287C70.5088 23.3766 70.415 22.749 70.415 22.0459C70.415 21.1084 70.5739 20.3115 70.8916 19.6553C71.2093 18.9938 71.6624 18.4912 72.251 18.1475C72.8447 17.7985 73.5505 17.624 74.3682 17.624C75.1494 17.624 75.8317 17.7985 76.415 18.1475C77.0036 18.4964 77.4593 19.0016 77.7822 19.6631C78.1104 20.3193 78.2744 21.1136 78.2744 22.0459ZM71.7588 22.0459C71.7588 22.7334 71.8499 23.3298 72.0322 23.835C72.2145 24.3402 72.4958 24.7308 72.876 25.0068C73.2562 25.2829 73.7458 25.4209 74.3447 25.4209C74.9385 25.4209 75.4255 25.2829 75.8057 25.0068C76.1911 24.7308 76.4749 24.3402 76.6572 23.835C76.8395 23.3298 76.9307 22.7334 76.9307 22.0459C76.9307 21.3636 76.8395 20.7751 76.6572 20.2803C76.4749 19.7803 76.1937 19.3949 75.8135 19.124C75.4333 18.8532 74.9411 18.7178 74.3369 18.7178C73.4463 18.7178 72.7926 19.012 72.376 19.6006C71.9645 20.1891 71.7588 21.0042 71.7588 22.0459ZM84.5713 17.624C85.5869 17.624 86.3551 17.874 86.876 18.374C87.3968 18.8688 87.6572 19.6657 87.6572 20.7646V26.3428H86.376V20.8506C86.376 20.137 86.2119 19.6032 85.8838 19.249C85.5609 18.8949 85.0635 18.7178 84.3916 18.7178C83.4437 18.7178 82.777 18.986 82.3916 19.5225C82.0062 20.0589 81.8135 20.8376 81.8135 21.8584V26.3428H80.5166V17.7803H81.5635L81.7588 19.0146H81.8291C82.0114 18.7126 82.2432 18.46 82.5244 18.2568C82.8057 18.0485 83.1208 17.8923 83.4697 17.7881C83.8187 17.6787 84.1859 17.624 84.5713 17.624ZM93.0947 25.4365C93.3083 25.4365 93.527 25.4183 93.751 25.3818C93.9749 25.3454 94.1572 25.3011 94.2979 25.249V26.2568C94.1468 26.3245 93.9359 26.3818 93.665 26.4287C93.3994 26.4756 93.139 26.499 92.8838 26.499C92.4307 26.499 92.0192 26.4209 91.6494 26.2646C91.2796 26.1032 90.9827 25.8324 90.7588 25.4521C90.54 25.0719 90.4307 24.5459 90.4307 23.874V18.7959H89.2119V18.1631L90.4385 17.6553L90.9541 15.7959H91.7354V17.7803H94.2432V18.7959H91.7354V23.835C91.7354 24.3714 91.8577 24.7725 92.1025 25.0381C92.3525 25.3037 92.6833 25.4365 93.0947 25.4365ZM99.2354 17.6396C100.256 17.6396 101.014 17.8688 101.509 18.3271C102.004 18.7855 102.251 19.5173 102.251 20.5225V26.3428H101.306L101.056 25.0771H100.993C100.754 25.3896 100.504 25.6527 100.243 25.8662C99.9827 26.0745 99.6807 26.2334 99.3369 26.3428C98.9984 26.4469 98.5817 26.499 98.0869 26.499C97.5661 26.499 97.1025 26.4079 96.6963 26.2256C96.2952 26.0433 95.9775 25.7673 95.7432 25.3975C95.514 25.0277 95.3994 24.5589 95.3994 23.9912C95.3994 23.137 95.738 22.4808 96.415 22.0225C97.0921 21.5641 98.1234 21.3141 99.5088 21.2725L100.985 21.21V20.6865C100.985 19.9469 100.826 19.4287 100.509 19.1318C100.191 18.835 99.7432 18.6865 99.165 18.6865C98.7171 18.6865 98.29 18.7516 97.8838 18.8818C97.4775 19.012 97.0921 19.1657 96.7275 19.3428L96.3291 18.3584C96.7145 18.1605 97.1572 17.9912 97.6572 17.8506C98.1572 17.71 98.6833 17.6396 99.2354 17.6396ZM100.97 22.124L99.665 22.1787C98.5973 22.2204 97.8447 22.3949 97.4072 22.7021C96.9697 23.0094 96.751 23.4443 96.751 24.0068C96.751 24.4964 96.8994 24.8584 97.1963 25.0928C97.4932 25.3271 97.8864 25.4443 98.376 25.4443C99.1364 25.4443 99.7588 25.2334 100.243 24.8115C100.728 24.3896 100.97 23.7568 100.97 22.9131V22.124ZM108.353 26.499C107.582 26.499 106.902 26.3402 106.313 26.0225C105.725 25.7048 105.267 25.2204 104.938 24.5693C104.61 23.9183 104.446 23.098 104.446 22.1084C104.446 21.0719 104.618 20.2256 104.962 19.5693C105.311 18.9079 105.79 18.4183 106.399 18.1006C107.009 17.7829 107.701 17.624 108.478 17.624C108.905 17.624 109.316 17.6683 109.712 17.7568C110.113 17.8402 110.441 17.9469 110.696 18.0771L110.306 19.1631C110.045 19.0589 109.743 18.9652 109.399 18.8818C109.061 18.7985 108.743 18.7568 108.446 18.7568C107.853 18.7568 107.358 18.8844 106.962 19.1396C106.571 19.3949 106.277 19.7699 106.079 20.2646C105.886 20.7594 105.79 21.3688 105.79 22.0928C105.79 22.7855 105.884 23.3766 106.071 23.8662C106.264 24.3558 106.548 24.7308 106.923 24.9912C107.303 25.2464 107.777 25.374 108.345 25.374C108.798 25.374 109.207 25.3271 109.571 25.2334C109.936 25.1344 110.267 25.0199 110.563 24.8896V26.0459C110.277 26.1917 109.957 26.3037 109.603 26.3818C109.254 26.46 108.837 26.499 108.353 26.499ZM115.36 25.4365C115.574 25.4365 115.793 25.4183 116.017 25.3818C116.241 25.3454 116.423 25.3011 116.563 25.249V26.2568C116.412 26.3245 116.201 26.3818 115.931 26.4287C115.665 26.4756 115.405 26.499 115.149 26.499C114.696 26.499 114.285 26.4209 113.915 26.2646C113.545 26.1032 113.248 25.8324 113.024 25.4521C112.806 25.0719 112.696 24.5459 112.696 23.874V18.7959H111.478V18.1631L112.704 17.6553L113.22 15.7959H114.001V17.7803H116.509V18.7959H114.001V23.835C114.001 24.3714 114.123 24.7725 114.368 25.0381C114.618 25.3037 114.949 25.4365 115.36 25.4365Z" fill="#2A3647"/>
</svg>
