<svg width="20" height="19" viewBox="0 0 20 19" fill="none" xmlns="http://www.w3.org/2000/svg">
<path d="M1 0.98291H19C19.2652 0.98291 19.5196 1.08827 19.7071 1.2758C19.8946 1.46334 20 1.71769 20 1.98291V17.9829C20 18.2481 19.8946 18.5025 19.7071 18.69C19.5196 18.8776 19.2652 18.9829 19 18.9829H1C0.734784 18.9829 0.48043 18.8776 0.292893 18.69C0.105357 18.5025 0 18.2481 0 17.9829V1.98291C0 1.71769 0.105357 1.46334 0.292893 1.2758C0.48043 1.08827 0.734784 0.98291 1 0.98291ZM18 5.22091L10.072 12.3209L2 5.19891V16.9829H18V5.22091ZM2.511 2.98291L10.061 9.64491L17.502 2.98291H2.511Z" fill="#A8A8A8"/>
</svg>
