<svg width="31" height="32" viewBox="0 0 31 32" fill="none" xmlns="http://www.w3.org/2000/svg">
<path d="M15.4225 24.9523C15.965 24.9523 16.4238 24.7648 16.7989 24.3897C17.173 24.0156 17.36 23.5573 17.36 23.0148C17.36 22.4723 17.173 22.0141 16.7989 21.64C16.4238 21.2649 15.965 21.0773 15.4225 21.0773C14.88 21.0773 14.4212 21.2649 14.0461 21.64C13.672 22.0141 13.485 22.4723 13.485 23.0148C13.485 23.5573 13.672 24.0156 14.0461 24.3897C14.4212 24.7648 14.88 24.9523 15.4225 24.9523ZM15.655 8.98734C16.3783 8.98734 16.9596 9.18729 17.3988 9.58719C17.8379 9.98813 18.0575 10.5115 18.0575 11.1573C18.0575 11.5965 17.9092 12.0419 17.6126 12.4934C17.3151 12.946 16.895 13.4178 16.3525 13.9086C15.5775 14.5803 15.0092 15.2261 14.6475 15.8461C14.2858 16.4661 14.105 17.0861 14.105 17.7061C14.105 18.0678 14.2409 18.371 14.5126 18.6159C14.7834 18.8619 15.0996 18.9848 15.4613 18.9848C15.8229 18.9848 16.1458 18.8557 16.43 18.5973C16.7142 18.339 16.895 18.0161 16.9725 17.6286C17.05 17.1894 17.2246 16.7828 17.4964 16.4087C17.7671 16.0336 18.2125 15.549 18.8325 14.9548C19.6333 14.2057 20.1955 13.5211 20.5189 12.9011C20.8413 12.2811 21.0025 11.5965 21.0025 10.8473C21.0025 9.52984 20.5055 8.45104 19.5114 7.61094C18.5163 6.77188 17.2308 6.35234 15.655 6.35234C14.57 6.35234 13.608 6.55901 12.7689 6.97234C11.9288 7.38568 11.2763 8.01859 10.8113 8.87109C10.6304 9.20693 10.5658 9.53604 10.6175 9.85844C10.6692 10.1819 10.85 10.4469 11.16 10.6536C11.4958 10.8603 11.8642 10.9248 12.2652 10.8473C12.6651 10.7698 12.9942 10.5503 13.2525 10.1886C13.5367 9.80109 13.8792 9.50401 14.2802 9.29734C14.68 9.09068 15.1383 8.98734 15.655 8.98734ZM15.5 31.1523C13.3817 31.1523 11.3796 30.7452 9.49375 29.9309C7.60792 29.1177 5.9613 28.0136 4.5539 26.6186C3.14547 25.2236 2.03463 23.5832 1.2214 21.6973C0.407133 19.8115 0 17.7965 0 15.6523C0 13.5082 0.407133 11.4932 1.2214 9.60734C2.03463 7.72151 3.14547 6.08109 4.5539 4.68609C5.9613 3.29109 7.60792 2.18646 9.49375 1.37219C11.3796 0.55896 13.3817 0.152344 15.5 0.152344C17.67 0.152344 19.6979 0.55896 21.5837 1.37219C23.4696 2.18646 25.11 3.29109 26.505 4.68609C27.9 6.08109 28.9979 7.72151 29.7987 9.60734C30.5996 11.4932 31 13.5082 31 15.6523C31 17.7965 30.5996 19.8115 29.7987 21.6973C28.9979 23.5832 27.9 25.2236 26.505 26.6186C25.11 28.0136 23.4696 29.1177 21.5837 29.9309C19.6979 30.7452 17.67 31.1523 15.5 31.1523ZM15.5 28.0523C18.9617 28.0523 21.8937 26.8449 24.2962 24.43C26.6987 22.0141 27.9 19.0882 27.9 15.6523C27.9 12.2165 26.6987 9.29063 24.2962 6.87469C21.8937 4.45979 18.9617 3.25234 15.5 3.25234C12.1158 3.25234 9.20287 4.45979 6.7611 6.87469C4.32037 9.29063 3.1 12.2165 3.1 15.6523C3.1 19.0882 4.32037 22.0141 6.7611 24.43C9.20287 26.8449 12.1158 28.0523 15.5 28.0523Z" fill="white"/>
</svg>
