<svg width="20" height="23" viewBox="0 0 20 23" fill="none" xmlns="http://www.w3.org/2000/svg">
<path d="M4.58333 19.8032H15.4167V19.5282C14.6583 18.8865 13.8188 18.4054 12.8979 18.085C11.9771 17.7638 11.0111 17.6032 10 17.6032C8.98889 17.6032 8.02292 17.7638 7.10208 18.085C6.18125 18.4054 5.34167 18.8865 4.58333 19.5282V19.8032ZM2.41667 18.5382C3.39167 17.5665 4.52483 16.8009 5.81617 16.2414C7.10678 15.6826 8.50139 15.4032 10 15.4032C11.4986 15.4032 12.8936 15.6826 14.1849 16.2414C15.4755 16.8009 16.6083 17.5665 17.5833 18.5382V4.40317H2.41667V18.5382ZM10 13.2032C8.95278 13.2032 8.05903 12.8273 7.31875 12.0757C6.57847 11.324 6.20833 10.4165 6.20833 9.35317C6.20833 8.28984 6.57847 7.38234 7.31875 6.63067C8.05903 5.87901 8.95278 5.50317 10 5.50317C11.0472 5.50317 11.941 5.87901 12.6813 6.63067C13.4215 7.38234 13.7917 8.28984 13.7917 9.35317C13.7917 10.4165 13.4215 11.324 12.6813 12.0757C11.941 12.8273 11.0472 13.2032 10 13.2032ZM10 11.0032C10.4514 11.0032 10.8349 10.8426 11.1505 10.5214C11.4668 10.2009 11.625 9.81151 11.625 9.35317C11.625 8.89484 11.4668 8.50544 11.1505 8.18497C10.8349 7.86377 10.4514 7.70317 10 7.70317C9.54861 7.70317 9.16511 7.86377 8.8495 8.18497C8.53317 8.50544 8.375 8.89484 8.375 9.35317C8.375 9.81151 8.53317 10.2009 8.8495 10.5214C9.16511 10.8426 9.54861 11.0032 10 11.0032ZM1.25 22.0032C0.697715 22.0032 0.25 21.5555 0.25 21.0032V3.20317C0.25 2.65089 0.697715 2.20317 1.25 2.20317H3.5V1.00317C3.5 0.450889 3.94772 0.00317383 4.5 0.00317383H4.66667C5.21895 0.00317383 5.66667 0.450889 5.66667 1.00317V2.20317H14.3333V1.00317C14.3333 0.450889 14.781 0.00317383 15.3333 0.00317383H15.5C16.0523 0.00317383 16.5 0.450889 16.5 1.00317V2.20317H18.75C19.3023 2.20317 19.75 2.65089 19.75 3.20317V21.0032C19.75 21.5555 19.3023 22.0032 18.75 22.0032H1.25Z" fill="#42526E"/>
</svg>
