<svg width="23" height="23" viewBox="0 0 23 23" fill="none" xmlns="http://www.w3.org/2000/svg">
<path d="M20.0016 0.169983H2.00159C0.897017 0.169983 0.00158691 1.06646 0.00158691 2.17103C0.00158691 2.19937 0.00158691 2.21926 0.00158691 2.22916V20.2292C0.00158691 21.301 0.871562 22.17 1.94345 22.17C1.97168 22.17 1.99157 22.17 2.00158 22.17H20.0016C20.0116 22.17 20.0315 22.17 20.0597 22.17C21.1316 22.17 22.0016 21.301 22.0016 20.2292V2.22913C22.0016 2.21924 22.0016 2.19935 22.0016 2.17103C22.0016 1.06646 21.1061 0.169983 20.0016 0.169983ZM13.0016 20.2292H2.00159V12.2291H13.0016V20.2292ZM13.0016 10.2291H2.00159V2.22916L13.0016 2.22913V10.2291ZM20.0016 20.2292H15.0016V2.22916H20.0016V20.2292Z" fill="#42526E"/>
</svg>
