<svg width="26" height="22" viewBox="0 0 26 22" fill="none" xmlns="http://www.w3.org/2000/svg">
<path d="M20 1.99991L20 19.9999C19.9995 20.5302 19.7886 21.0386 19.4136 21.4135C19.0387 21.7885 18.5303 21.9994 18 21.9999L14 21.9999C13.4697 21.9994 12.9613 21.7885 12.5864 21.4135C12.2114 21.0386 12.0005 20.5302 12 19.9999L12 1.99991C12.0005 1.46964 12.2114 0.96124 12.5864 0.586282C12.9613 0.211324 13.4697 0.000440009 14 -9.02573e-05L18 -9.04322e-05C18.5303 0.000439788 19.0387 0.211324 19.4136 0.586282C19.7886 0.96124 19.9995 1.46964 20 1.99991ZM14 19.9999L18 19.9999L18 1.99991L14 1.99991L14 19.9999ZM14 1.99991L14 19.9999C13.9995 20.5302 13.7886 21.0386 13.4136 21.4135C13.0387 21.7885 12.5303 21.9994 12 21.9999L8 21.9999C7.46973 21.9994 6.96133 21.7885 6.58637 21.4135C6.21141 21.0386 6.00053 20.5302 6 19.9999L6 1.99989C6.00053 1.46962 6.21141 0.96122 6.58637 0.586261C6.96133 0.211303 7.46973 0.000421198 8 -0.000109069L12 -0.000109243C12.5303 0.000420976 13.0387 0.211303 13.4136 0.586261C13.7886 0.961219 13.9995 1.46964 14 1.99991ZM8 19.9999L12 19.9999L12 1.99991L8 1.99989L8 19.9999ZM8 1.99989L8 19.9999C7.99947 20.5302 7.78859 21.0386 7.41363 21.4135C7.03867 21.7885 6.53027 21.9994 6 21.9999L2 21.9999C1.46973 21.9994 0.961329 21.7885 0.586371 21.4135C0.211413 21.0386 0.000529412 20.5302 -8.74331e-08 19.9999L-8.74238e-07 1.99989C0.000528579 1.46962 0.211412 0.96122 0.58637 0.586262C0.961328 0.211304 1.46973 0.00042146 2 -0.000108806L6 -0.000108981C6.53027 0.000421239 7.03867 0.211303 7.41363 0.586261C7.78859 0.961219 7.99947 1.46962 8 1.99989ZM2 19.9999L6 19.9999L6 1.99989L2 1.99989L2 19.9999Z" fill="#42526E"/>
<path d="M26 2.00013L26 20.0001C25.9995 20.5304 25.7886 21.0388 25.4136 21.4137C25.0387 21.7887 24.5303 21.9996 24 22.0001L20 22.0001C19.4697 21.9996 18.9613 21.7887 18.5864 21.4137C18.2114 21.0388 18.0005 20.5302 18 19.9999L18 1.99991C18.0005 1.46964 18.2114 0.961461 18.5864 0.586503C18.9613 0.211545 19.4697 0.000662906 20 0.00013264L24 0.000132465C24.5303 0.000662685 25.0387 0.211545 25.4136 0.586503C25.7886 0.961461 25.9995 1.46986 26 2.00013ZM20 19.9999L24 20.0001L24 2.00013L20 1.99991L20 19.9999Z" fill="#42526E"/>
</svg>
