<svg width="334" height="82" viewBox="0 0 334 82" fill="none" xmlns="http://www.w3.org/2000/svg">
<g filter="url(#filter0_d_405_4817)">
<rect x="4" y="4" width="326" height="74" rx="20" fill="#4589FF" shape-rendering="crispEdges"/>
<path d="M40.7886 50H38.8682V35.2656H33.7021V33.5811H45.9321V35.2656H40.7886V50ZM52.7378 37.4893C54.2052 37.4893 55.2946 37.8187 56.0059 38.4775C56.7171 39.1364 57.0728 40.1883 57.0728 41.6333V50H55.7139L55.3545 48.1807H55.2646C54.9202 48.6299 54.5609 49.008 54.1865 49.3149C53.8122 49.6144 53.3779 49.8428 52.8838 50C52.3971 50.1497 51.7982 50.2246 51.0869 50.2246C50.3382 50.2246 49.6719 50.0936 49.0879 49.8315C48.5114 49.5695 48.0547 49.1727 47.7178 48.6411C47.3883 48.1095 47.2236 47.4357 47.2236 46.6196C47.2236 45.3918 47.7103 44.4484 48.6836 43.7896C49.6569 43.1307 51.1393 42.7713 53.1309 42.7114L55.2534 42.6216V41.8691C55.2534 40.806 55.0251 40.061 54.5684 39.6343C54.1117 39.2075 53.4678 38.9941 52.6367 38.9941C51.9928 38.9941 51.3789 39.0877 50.7949 39.2749C50.2109 39.4621 49.6569 39.6829 49.1328 39.9375L48.5601 38.5225C49.1141 38.238 49.7505 37.9946 50.4692 37.7925C51.188 37.5903 51.9442 37.4893 52.7378 37.4893ZM55.231 43.9355L53.3555 44.0142C51.8206 44.0741 50.7388 44.3249 50.1099 44.7666C49.481 45.2083 49.1665 45.8335 49.1665 46.6421C49.1665 47.3459 49.3799 47.8662 49.8066 48.2031C50.2334 48.54 50.7987 48.7085 51.5024 48.7085C52.5955 48.7085 53.4902 48.4053 54.1865 47.7988C54.8828 47.1924 55.231 46.2827 55.231 45.0698V43.9355ZM68.876 46.6309C68.876 47.417 68.6776 48.0796 68.2808 48.6187C67.8914 49.1502 67.3299 49.5508 66.5962 49.8203C65.87 50.0898 65.0015 50.2246 63.9907 50.2246C63.1297 50.2246 62.3848 50.1572 61.7559 50.0225C61.127 49.8877 60.5767 49.6968 60.105 49.4497V47.7314C60.6066 47.9785 61.2056 48.2031 61.9019 48.4053C62.5981 48.6074 63.3094 48.7085 64.0356 48.7085C65.0988 48.7085 65.87 48.5363 66.3491 48.1919C66.8283 47.8475 67.0679 47.3796 67.0679 46.7881C67.0679 46.4512 66.9705 46.1554 66.7759 45.9009C66.5887 45.6388 66.2705 45.388 65.8213 45.1484C65.3721 44.9014 64.7507 44.6318 63.957 44.3398C63.1709 44.0404 62.4896 43.7446 61.9131 43.4526C61.3441 43.1532 60.9023 42.79 60.5879 42.3633C60.2809 41.9365 60.1274 41.3825 60.1274 40.7012C60.1274 39.6605 60.5467 38.8631 61.3853 38.3091C62.2313 37.7476 63.3394 37.4668 64.7095 37.4668C65.4507 37.4668 66.1432 37.5417 66.7871 37.6914C67.4385 37.8337 68.0449 38.0283 68.6064 38.2754L67.9775 39.769C67.4684 39.5519 66.9256 39.3685 66.3491 39.2188C65.7726 39.069 65.1849 38.9941 64.5859 38.9941C63.7249 38.9941 63.0623 39.1364 62.5981 39.4209C62.1414 39.7054 61.9131 40.0947 61.9131 40.5889C61.9131 40.9707 62.0179 41.2852 62.2275 41.5322C62.4447 41.7793 62.7891 42.0114 63.2607 42.2285C63.7324 42.4456 64.3538 42.7002 65.125 42.9922C65.8962 43.2767 66.5625 43.5724 67.124 43.8794C67.6855 44.1789 68.116 44.5457 68.4155 44.98C68.7225 45.4067 68.876 45.957 68.876 46.6309ZM73.7275 32.5254V41.5996C73.7275 41.8991 73.7163 42.266 73.6938 42.7002C73.6714 43.127 73.6527 43.505 73.6377 43.8345H73.7163C73.8735 43.6398 74.1019 43.3516 74.4014 42.9697C74.7083 42.5879 74.9666 42.2809 75.1763 42.0488L79.2642 37.6914H81.4541L76.5015 42.9473L81.8135 50H79.5674L75.2212 44.1714L73.7275 45.5415V50H71.8745V32.5254H73.7275ZM94.5376 37.4893C96.005 37.4893 97.0944 37.8187 97.8057 38.4775C98.5169 39.1364 98.8726 40.1883 98.8726 41.6333V50H97.5137L97.1543 48.1807H97.0645C96.7201 48.6299 96.3607 49.008 95.9863 49.3149C95.612 49.6144 95.1777 49.8428 94.6836 50C94.1969 50.1497 93.598 50.2246 92.8867 50.2246C92.138 50.2246 91.4717 50.0936 90.8877 49.8315C90.3112 49.5695 89.8545 49.1727 89.5176 48.6411C89.1882 48.1095 89.0234 47.4357 89.0234 46.6196C89.0234 45.3918 89.5101 44.4484 90.4834 43.7896C91.4567 43.1307 92.9391 42.7713 94.9307 42.7114L97.0532 42.6216V41.8691C97.0532 40.806 96.8249 40.061 96.3682 39.6343C95.9115 39.2075 95.2676 38.9941 94.4365 38.9941C93.7926 38.9941 93.1787 39.0877 92.5947 39.2749C92.0107 39.4621 91.4567 39.6829 90.9326 39.9375L90.3599 38.5225C90.9139 38.238 91.5503 37.9946 92.269 37.7925C92.9878 37.5903 93.744 37.4893 94.5376 37.4893ZM97.0308 43.9355L95.1553 44.0142C93.6204 44.0741 92.5386 44.3249 91.9097 44.7666C91.2808 45.2083 90.9663 45.8335 90.9663 46.6421C90.9663 47.3459 91.1797 47.8662 91.6064 48.2031C92.0332 48.54 92.5985 48.7085 93.3022 48.7085C94.3953 48.7085 95.29 48.4053 95.9863 47.7988C96.6826 47.1924 97.0308 46.2827 97.0308 45.0698V43.9355ZM107.093 50.2246C105.536 50.2246 104.301 49.693 103.387 48.6299C102.481 47.5667 102.028 45.987 102.028 43.8906C102.028 41.7718 102.493 40.1733 103.421 39.0952C104.349 38.0096 105.585 37.4668 107.127 37.4668C107.778 37.4668 108.347 37.5529 108.834 37.7251C109.321 37.8973 109.74 38.1294 110.092 38.4214C110.444 38.7059 110.739 39.0316 110.979 39.3984H111.114C111.084 39.1663 111.054 38.8481 111.024 38.4438C110.994 38.0396 110.979 37.7101 110.979 37.4556V32.5254H112.843V50H111.338L111.058 48.248H110.979C110.747 48.6149 110.451 48.9481 110.092 49.2476C109.74 49.547 109.317 49.7866 108.823 49.9663C108.336 50.1385 107.76 50.2246 107.093 50.2246ZM107.385 48.6748C108.703 48.6748 109.635 48.3005 110.182 47.5518C110.728 46.8031 111.001 45.6912 111.001 44.2163V43.8794C111.001 42.3146 110.739 41.113 110.215 40.2744C109.699 39.4359 108.755 39.0166 107.385 39.0166C106.24 39.0166 105.382 39.4583 104.813 40.3418C104.244 41.2178 103.96 42.4157 103.96 43.9355C103.96 45.4479 104.241 46.6159 104.802 47.4395C105.371 48.263 106.232 48.6748 107.385 48.6748ZM121.176 50.2246C119.619 50.2246 118.384 49.693 117.47 48.6299C116.564 47.5667 116.111 45.987 116.111 43.8906C116.111 41.7718 116.576 40.1733 117.504 39.0952C118.432 38.0096 119.668 37.4668 121.21 37.4668C121.861 37.4668 122.43 37.5529 122.917 37.7251C123.404 37.8973 123.823 38.1294 124.175 38.4214C124.527 38.7059 124.822 39.0316 125.062 39.3984H125.197C125.167 39.1663 125.137 38.8481 125.107 38.4438C125.077 38.0396 125.062 37.7101 125.062 37.4556V32.5254H126.926V50H125.421L125.141 48.248H125.062C124.83 48.6149 124.534 48.9481 124.175 49.2476C123.823 49.547 123.4 49.7866 122.906 49.9663C122.419 50.1385 121.843 50.2246 121.176 50.2246ZM121.468 48.6748C122.786 48.6748 123.718 48.3005 124.265 47.5518C124.811 46.8031 125.084 45.6912 125.084 44.2163V43.8794C125.084 42.3146 124.822 41.113 124.298 40.2744C123.782 39.4359 122.838 39.0166 121.468 39.0166C120.323 39.0166 119.465 39.4583 118.896 40.3418C118.327 41.2178 118.043 42.4157 118.043 43.9355C118.043 45.4479 118.324 46.6159 118.885 47.4395C119.454 48.263 120.315 48.6748 121.468 48.6748ZM135.619 37.4668C136.667 37.4668 137.565 37.6989 138.314 38.1631C139.063 38.6273 139.635 39.2786 140.032 40.1172C140.429 40.9482 140.627 41.9215 140.627 43.0371V44.1938H132.126C132.148 45.6388 132.508 46.7394 133.204 47.4956C133.9 48.2518 134.881 48.6299 136.146 48.6299C136.925 48.6299 137.614 48.5588 138.213 48.4165C138.812 48.2743 139.433 48.0646 140.077 47.7876V49.4272C139.456 49.7043 138.838 49.9064 138.224 50.0337C137.618 50.161 136.899 50.2246 136.068 50.2246C134.885 50.2246 133.852 49.985 132.968 49.5059C132.092 49.0192 131.411 48.3079 130.924 47.3721C130.438 46.4362 130.194 45.2907 130.194 43.9355C130.194 42.6104 130.415 41.4648 130.857 40.499C131.306 39.5257 131.935 38.777 132.744 38.2529C133.56 37.7288 134.518 37.4668 135.619 37.4668ZM135.596 38.9941C134.6 38.9941 133.807 39.3198 133.215 39.9712C132.624 40.6226 132.272 41.5322 132.16 42.7002H138.673C138.666 41.9665 138.55 41.3226 138.325 40.7686C138.108 40.207 137.775 39.7728 137.326 39.4658C136.876 39.1514 136.3 38.9941 135.596 38.9941ZM148.174 50.2246C146.617 50.2246 145.382 49.693 144.468 48.6299C143.562 47.5667 143.109 45.987 143.109 43.8906C143.109 41.7718 143.574 40.1733 144.502 39.0952C145.43 38.0096 146.666 37.4668 148.208 37.4668C148.859 37.4668 149.428 37.5529 149.915 37.7251C150.402 37.8973 150.821 38.1294 151.173 38.4214C151.525 38.7059 151.82 39.0316 152.06 39.3984H152.195C152.165 39.1663 152.135 38.8481 152.105 38.4438C152.075 38.0396 152.06 37.7101 152.06 37.4556V32.5254H153.924V50H152.419L152.139 48.248H152.06C151.828 48.6149 151.532 48.9481 151.173 49.2476C150.821 49.547 150.398 49.7866 149.904 49.9663C149.417 50.1385 148.841 50.2246 148.174 50.2246ZM148.466 48.6748C149.784 48.6748 150.716 48.3005 151.263 47.5518C151.809 46.8031 152.083 45.6912 152.083 44.2163V43.8794C152.083 42.3146 151.82 41.113 151.296 40.2744C150.78 39.4359 149.836 39.0166 148.466 39.0166C147.321 39.0166 146.464 39.4583 145.895 40.3418C145.326 41.2178 145.041 42.4157 145.041 43.9355C145.041 45.4479 145.322 46.6159 145.883 47.4395C146.452 48.263 147.313 48.6748 148.466 48.6748ZM167.828 48.6973C168.135 48.6973 168.449 48.6711 168.771 48.6187C169.093 48.5662 169.355 48.5026 169.557 48.4277V49.8765C169.34 49.9738 169.037 50.0562 168.647 50.1235C168.266 50.1909 167.891 50.2246 167.524 50.2246C166.873 50.2246 166.282 50.1123 165.75 49.8877C165.218 49.6556 164.792 49.2663 164.47 48.7197C164.155 48.1732 163.998 47.417 163.998 46.4512V39.1514H162.246V38.2417L164.009 37.5117L164.75 34.8389H165.874V37.6914H169.479V39.1514H165.874V46.395C165.874 47.1662 166.049 47.7427 166.401 48.1245C166.761 48.5063 167.236 48.6973 167.828 48.6973ZM182.663 43.8232C182.663 44.834 182.532 45.7362 182.27 46.5298C182.008 47.3234 181.63 47.9935 181.136 48.54C180.642 49.0866 180.043 49.5059 179.339 49.7979C178.643 50.0824 177.853 50.2246 176.969 50.2246C176.146 50.2246 175.389 50.0824 174.701 49.7979C174.019 49.5059 173.428 49.0866 172.926 48.54C172.432 47.9935 172.047 47.3234 171.77 46.5298C171.5 45.7362 171.365 44.834 171.365 43.8232C171.365 42.4756 171.594 41.3301 172.05 40.3867C172.507 39.4359 173.158 38.7134 174.004 38.2192C174.858 37.7176 175.872 37.4668 177.048 37.4668C178.171 37.4668 179.152 37.7176 179.99 38.2192C180.836 38.7209 181.491 39.4471 181.956 40.3979C182.427 41.3413 182.663 42.4831 182.663 43.8232ZM173.297 43.8232C173.297 44.8115 173.428 45.6688 173.69 46.395C173.952 47.1213 174.356 47.6828 174.903 48.0796C175.449 48.4764 176.153 48.6748 177.014 48.6748C177.868 48.6748 178.568 48.4764 179.114 48.0796C179.668 47.6828 180.076 47.1213 180.338 46.395C180.6 45.6688 180.731 44.8115 180.731 43.8232C180.731 42.8424 180.6 41.9964 180.338 41.2852C180.076 40.5664 179.672 40.0124 179.125 39.623C178.579 39.2337 177.871 39.0391 177.003 39.0391C175.723 39.0391 174.783 39.4621 174.184 40.3081C173.593 41.1541 173.297 42.3258 173.297 43.8232ZM193.725 32.5254V36.894C193.725 37.3957 193.71 37.8823 193.68 38.354C193.658 38.8257 193.639 39.1925 193.624 39.4546H193.725C194.062 38.9006 194.549 38.4326 195.185 38.0508C195.821 37.6689 196.634 37.478 197.622 37.478C199.164 37.478 200.392 38.0133 201.306 39.084C202.227 40.1471 202.687 41.7306 202.687 43.8345C202.687 45.2196 202.477 46.3875 202.058 47.3384C201.639 48.2892 201.047 49.008 200.284 49.4946C199.52 49.9813 198.618 50.2246 197.577 50.2246C196.604 50.2246 195.803 50.0449 195.174 49.6855C194.552 49.3187 194.073 48.8732 193.736 48.3491H193.59L193.208 50H191.861V32.5254H193.725ZM197.319 39.0391C196.428 39.0391 195.72 39.215 195.196 39.5669C194.672 39.9113 194.294 40.4354 194.062 41.1392C193.837 41.8354 193.725 42.7189 193.725 43.7896V43.8906C193.725 45.4404 193.983 46.6271 194.5 47.4507C195.017 48.2668 195.956 48.6748 197.319 48.6748C198.464 48.6748 199.322 48.2555 199.891 47.417C200.467 46.5785 200.755 45.3805 200.755 43.8232C200.755 42.236 200.471 41.0418 199.902 40.2407C199.34 39.4396 198.479 39.0391 197.319 39.0391ZM216.557 43.8232C216.557 44.834 216.426 45.7362 216.164 46.5298C215.902 47.3234 215.523 47.9935 215.029 48.54C214.535 49.0866 213.936 49.5059 213.232 49.7979C212.536 50.0824 211.746 50.2246 210.863 50.2246C210.039 50.2246 209.283 50.0824 208.594 49.7979C207.913 49.5059 207.321 49.0866 206.82 48.54C206.326 47.9935 205.94 47.3234 205.663 46.5298C205.394 45.7362 205.259 44.834 205.259 43.8232C205.259 42.4756 205.487 41.3301 205.944 40.3867C206.401 39.4359 207.052 38.7134 207.898 38.2192C208.751 37.7176 209.766 37.4668 210.941 37.4668C212.064 37.4668 213.045 37.7176 213.884 38.2192C214.73 38.7209 215.385 39.4471 215.849 40.3979C216.321 41.3413 216.557 42.4831 216.557 43.8232ZM207.19 43.8232C207.19 44.8115 207.321 45.6688 207.583 46.395C207.846 47.1213 208.25 47.6828 208.796 48.0796C209.343 48.4764 210.047 48.6748 210.908 48.6748C211.761 48.6748 212.461 48.4764 213.008 48.0796C213.562 47.6828 213.97 47.1213 214.232 46.395C214.494 45.6688 214.625 44.8115 214.625 43.8232C214.625 42.8424 214.494 41.9964 214.232 41.2852C213.97 40.5664 213.566 40.0124 213.019 39.623C212.472 39.2337 211.765 39.0391 210.896 39.0391C209.616 39.0391 208.677 39.4621 208.078 40.3081C207.486 41.1541 207.19 42.3258 207.19 43.8232ZM224.384 37.4893C225.852 37.4893 226.941 37.8187 227.652 38.4775C228.364 39.1364 228.719 40.1883 228.719 41.6333V50H227.36L227.001 48.1807H226.911C226.567 48.6299 226.207 49.008 225.833 49.3149C225.459 49.6144 225.024 49.8428 224.53 50C224.044 50.1497 223.445 50.2246 222.733 50.2246C221.985 50.2246 221.318 50.0936 220.734 49.8315C220.158 49.5695 219.701 49.1727 219.364 48.6411C219.035 48.1095 218.87 47.4357 218.87 46.6196C218.87 45.3918 219.357 44.4484 220.33 43.7896C221.303 43.1307 222.786 42.7713 224.777 42.7114L226.9 42.6216V41.8691C226.9 40.806 226.672 40.061 226.215 39.6343C225.758 39.2075 225.114 38.9941 224.283 38.9941C223.639 38.9941 223.025 39.0877 222.441 39.2749C221.857 39.4621 221.303 39.6829 220.779 39.9375L220.207 38.5225C220.761 38.238 221.397 37.9946 222.116 37.7925C222.834 37.5903 223.591 37.4893 224.384 37.4893ZM226.877 43.9355L225.002 44.0142C223.467 44.0741 222.385 44.3249 221.756 44.7666C221.127 45.2083 220.813 45.8335 220.813 46.6421C220.813 47.3459 221.026 47.8662 221.453 48.2031C221.88 48.54 222.445 48.7085 223.149 48.7085C224.242 48.7085 225.137 48.4053 225.833 47.7988C226.529 47.1924 226.877 46.2827 226.877 45.0698V43.9355ZM238.153 37.4668C238.4 37.4668 238.658 37.4818 238.928 37.5117C239.197 37.5342 239.437 37.5679 239.646 37.6128L239.411 39.3423C239.208 39.2899 238.984 39.2487 238.737 39.2188C238.49 39.1888 238.258 39.1738 238.041 39.1738C237.546 39.1738 237.078 39.2749 236.637 39.4771C236.202 39.6717 235.821 39.9562 235.491 40.3306C235.162 40.6974 234.903 41.1429 234.716 41.667C234.529 42.1836 234.436 42.7601 234.436 43.3965V50H232.56V37.6914H234.11L234.312 39.96H234.391C234.645 39.5033 234.952 39.0877 235.312 38.7134C235.671 38.3315 236.086 38.0283 236.558 37.8037C237.037 37.5791 237.569 37.4668 238.153 37.4668ZM246.351 50.2246C244.794 50.2246 243.558 49.693 242.645 48.6299C241.739 47.5667 241.286 45.987 241.286 43.8906C241.286 41.7718 241.75 40.1733 242.679 39.0952C243.607 38.0096 244.842 37.4668 246.385 37.4668C247.036 37.4668 247.605 37.5529 248.092 37.7251C248.578 37.8973 248.998 38.1294 249.35 38.4214C249.701 38.7059 249.997 39.0316 250.237 39.3984H250.372C250.342 39.1663 250.312 38.8481 250.282 38.4438C250.252 38.0396 250.237 37.7101 250.237 37.4556V32.5254H252.101V50H250.596L250.315 48.248H250.237C250.005 48.6149 249.709 48.9481 249.35 49.2476C248.998 49.547 248.575 49.7866 248.081 49.9663C247.594 50.1385 247.017 50.2246 246.351 50.2246ZM246.643 48.6748C247.961 48.6748 248.893 48.3005 249.439 47.5518C249.986 46.8031 250.259 45.6912 250.259 44.2163V43.8794C250.259 42.3146 249.997 41.113 249.473 40.2744C248.957 39.4359 248.013 39.0166 246.643 39.0166C245.498 39.0166 244.64 39.4583 244.071 40.3418C243.502 41.2178 243.218 42.4157 243.218 43.9355C243.218 45.4479 243.499 46.6159 244.06 47.4395C244.629 48.263 245.49 48.6748 246.643 48.6748Z" fill="white"/>
<path d="M294.5 31.9998L294.5 49.9998C294.499 50.5301 294.289 51.0385 293.914 51.4134C293.539 51.7884 293.03 51.9993 292.5 51.9998L288.5 51.9998C287.97 51.9993 287.461 51.7884 287.086 51.4134C286.711 51.0385 286.501 50.5301 286.5 49.9998L286.5 31.9998C286.501 31.4695 286.711 30.9611 287.086 30.5862C287.461 30.2112 287.97 30.0003 288.5 29.9998L292.5 29.9998C293.03 30.0003 293.539 30.2112 293.914 30.5862C294.289 30.9611 294.499 31.4695 294.5 31.9998ZM288.5 49.9998L292.5 49.9998L292.5 31.9998L288.5 31.9998L288.5 49.9998ZM288.5 31.9998L288.5 49.9998C288.499 50.5301 288.289 51.0384 287.914 51.4134C287.539 51.7883 287.03 51.9992 286.5 51.9998L282.5 51.9998C281.97 51.9992 281.461 51.7883 281.086 51.4134C280.711 51.0384 280.501 50.53 280.5 49.9998L280.5 31.9998C280.501 31.4695 280.711 30.9611 281.086 30.5861C281.461 30.2112 281.97 30.0003 282.5 29.9998L286.5 29.9998C287.03 30.0003 287.539 30.2112 287.914 30.5861C288.289 30.9611 288.499 31.4695 288.5 31.9998ZM282.5 49.9998L286.5 49.9998L286.5 31.9998L282.5 31.9998L282.5 49.9998ZM282.5 31.9998L282.5 49.9998C282.499 50.53 282.289 51.0384 281.914 51.4134C281.539 51.7883 281.03 51.9992 280.5 51.9998L276.5 51.9998C275.97 51.9992 275.461 51.7883 275.086 51.4134C274.711 51.0384 274.501 50.53 274.5 49.9998L274.5 31.9998C274.501 31.4695 274.711 30.9611 275.086 30.5861C275.461 30.2112 275.97 30.0003 276.5 29.9998L280.5 29.9998C281.03 30.0003 281.539 30.2112 281.914 30.5861C282.289 30.9611 282.499 31.4695 282.5 31.9998ZM276.5 49.9998L280.5 49.9998L280.5 31.9998L276.5 31.9998L276.5 49.9998Z" fill="white"/>
<path d="M300.5 32L300.5 50C300.499 50.5303 300.289 51.0387 299.914 51.4136C299.539 51.7886 299.03 51.9995 298.5 52L294.5 52C293.97 51.9995 293.461 51.7886 293.086 51.4136C292.711 51.0387 292.501 50.5301 292.5 49.9998L292.5 31.9998C292.501 31.4695 292.711 30.9613 293.086 30.5864C293.461 30.2114 293.97 30.0005 294.5 30L298.5 30C299.03 30.0005 299.539 30.2114 299.914 30.5864C300.289 30.9613 300.499 31.4697 300.5 32ZM294.5 49.9998L298.5 50L298.5 32L294.5 31.9998L294.5 49.9998Z" fill="white"/>
</g>
<defs>
<filter id="filter0_d_405_4817" x="0" y="0" width="334" height="82" filterUnits="userSpaceOnUse" color-interpolation-filters="sRGB">
<feFlood flood-opacity="0" result="BackgroundImageFix"/>
<feColorMatrix in="SourceAlpha" type="matrix" values="0 0 0 0 0 0 0 0 0 0 0 0 0 0 0 0 0 0 127 0" result="hardAlpha"/>
<feOffset/>
<feGaussianBlur stdDeviation="2"/>
<feComposite in2="hardAlpha" operator="out"/>
<feColorMatrix type="matrix" values="0 0 0 0 0 0 0 0 0 0 0 0 0 0 0 0 0 0 0.15 0"/>
<feBlend mode="normal" in2="BackgroundImageFix" result="effect1_dropShadow_405_4817"/>
<feBlend mode="normal" in="SourceGraphic" in2="effect1_dropShadow_405_4817" result="shape"/>
</filter>
</defs>
</svg>
