<svg width="20" height="20" viewBox="0 0 20 20" fill="none" xmlns="http://www.w3.org/2000/svg">
<path d="M6.8965 8.55508C7.91303 10.3409 9.39198 11.8199 11.1778 12.8364L12.1355 11.4952C12.2895 11.2796 12.5172 11.1279 12.7755 11.0688C13.0339 11.0097 13.3049 11.0473 13.5373 11.1746C15.0695 12.0119 16.7616 12.5155 18.5023 12.6522C18.7739 12.6738 19.0275 12.7969 19.2124 12.9971C19.3974 13.1973 19.5 13.4598 19.5 13.7323V18.5662C19.5001 18.8344 19.4006 19.0931 19.2209 19.2922C19.0412 19.4913 18.794 19.6167 18.5272 19.6441C17.953 19.7037 17.3745 19.7329 16.7917 19.7329C7.51833 19.7329 0 12.2146 0 2.94124C0 2.35841 0.02925 1.77991 0.0888334 1.20574C0.116193 0.938915 0.241566 0.691724 0.440689 0.512014C0.639812 0.332303 0.898523 0.232852 1.16675 0.23291H6.00058C6.27311 0.232876 6.53564 0.335558 6.73582 0.520482C6.93601 0.705406 7.05914 0.958986 7.08067 1.23066C7.21741 2.97135 7.721 4.6634 8.55833 6.19558C8.68559 6.42802 8.72323 6.69905 8.66414 6.95737C8.60505 7.2157 8.45332 7.44341 8.23767 7.59741L6.8965 8.55508ZM4.97683 9.56366C4.42815 8.58704 4.80227 7.38771 5.71385 6.73665L6.22267 6.37324C5.63851 5.11235 5.2383 3.77415 5.03425 2.39958H2.1775C2.171 2.57941 2.16775 2.76033 2.16775 2.94124C2.16667 11.0186 8.71433 17.5662 16.7917 17.5662C16.9726 17.5662 17.1535 17.563 17.3333 17.5554V14.6987C15.9588 14.4946 14.6206 14.0944 13.3597 13.5102L12.9963 14.0191C12.3452 14.9306 11.1459 15.3048 10.1693 14.7561L10.1064 14.7203C7.98154 13.511 6.22189 11.7514 5.01258 9.62649L4.97683 9.56366Z" fill="#A8A8A8"/>
</svg>
