<svg width="20" height="15" viewBox="0 0 20 15" fill="none" xmlns="http://www.w3.org/2000/svg">
<path d="M18.9041 14.755C18.6695 14.7554 18.441 14.6805 18.2521 14.5414L10 8.45824L1.74797 14.5414C1.63212 14.627 1.50054 14.6889 1.36073 14.7237C1.22093 14.7584 1.07565 14.7653 0.933183 14.7439C0.790715 14.7226 0.653851 14.6734 0.530406 14.5992C0.406961 14.525 0.299352 14.4272 0.213723 14.3114C0.128094 14.1957 0.0661217 14.0642 0.031345 13.9245C-0.00343163 13.7848 -0.0103318 13.6396 0.0110384 13.4973C0.0541974 13.2097 0.209888 12.9511 0.44386 12.7783L9.34797 6.20786C9.53667 6.06826 9.76524 5.99292 10 5.99292C10.2348 5.99292 10.4634 6.06826 10.6521 6.20786L19.5562 12.7783C19.7421 12.9153 19.88 13.1074 19.9501 13.3272C20.0203 13.5471 20.0191 13.7835 19.9468 14.0027C19.8745 14.2219 19.7348 14.4126 19.5475 14.5477C19.3603 14.6828 19.1351 14.7554 18.9041 14.755Z" fill="white"/>
<path d="M18.9041 9.00581C18.6695 9.00621 18.441 8.93136 18.2521 8.79226L10 2.7091L1.74797 8.79226C1.514 8.96507 1.22091 9.03793 0.933188 8.9948C0.645461 8.95167 0.386663 8.7961 0.213727 8.5623C0.0407916 8.3285 -0.0321162 8.03563 0.0110429 7.74811C0.0542019 7.4606 0.209892 7.20199 0.443864 7.02919L9.34797 0.45871C9.53667 0.319119 9.76525 0.243774 10 0.243774C10.2348 0.243774 10.4634 0.319119 10.6521 0.45871L19.5562 7.02919C19.7421 7.1661 19.88 7.35822 19.9501 7.5781C20.0203 7.79797 20.0191 8.03438 19.9468 8.25356C19.8745 8.47274 19.7348 8.6635 19.5475 8.79859C19.3603 8.93368 19.1351 9.0062 18.9041 9.00581Z" fill="white"/>
</svg>
